<?xml version="1.0" encoding="UTF-8"?><svg xmlns="http://www.w3.org/2000/svg" viewBox="0 0 1080 1080"><defs><style>.h,.i,.j{fill:#fff;}.k{fill:#ffc611;}.i{font-family:OpenSans-Semibold, Open Sans;font-size:81.19px;letter-spacing:-.04em;}.i,.j{font-weight:700;}.l{fill:#ffa301;}.m{fill:#ff7f00;}.n{fill:#e9edf5;}.j{font-family:OpenSans-Extrabold, Open Sans;font-size:190.28px;letter-spacing:-.04em;}.o{fill:#fc9e15;}</style></defs><g id="a"><g id="b"/><g id="c"/><g id="d"/><path class="l" d="M122.86,431.22h-16.46c-2.43,0-4.39,1.97-4.39,4.39v98.65c0,2.43,1.97,4.39,4.39,4.39h16.06c.22,0,.4,.18,.4,.4v36.05h-15.47c-23.57,0-42.67-19.1-42.67-42.67v-95.9c0-23.06,18.7-41.76,41.76-41.76h16.38v36.45Z"/><rect class="k" x="121.55" y="390.62" width="94.9" height="214.67"/><rect class="o" x="216.45" y="390.62" width="94.9" height="214.67"/><rect class="l" x="146.54" y="409.06" width="34.92" height="166.04" rx="8.26" ry="8.26"/><path class="l" d="M199.08,409.06h17.46v166.04h-9.2c-4.56,0-8.26-3.7-8.26-8.26v-157.78h0Z"/><path class="m" d="M216.59,409.06h17.46v157.78c0,4.56-3.7,8.26-8.26,8.26h-9.2v-166.04h0Z"/><rect class="m" x="250.97" y="409.06" width="34.92" height="166.04" rx="8.26" ry="8.26"/><path class="h" d="M283.37,306.41c-5.77,0-11.3,1.02-16.43,2.88-.68-.99-1.39-1.95-2.16-2.88-10.79-13.21-29.3-21.32-48.33-21.32-21.37,0-39.62,9.64-51.25,24.66-3.55-.54-7.42-.83-11.66-.83-26.54,0-50.55,19.01-50.55,45.55s21.51,48.05,48.05,48.05c8.31,0,15.26-.97,21.05-2.76,11.2,9.01,28.94,14.86,44.36,14.86s32.83-5.5,45.47-14.97c5.85,2.01,12.78,2.89,20.89,2.34,26.48-1.78,48.6-20.98,48.6-47.52s-21.51-48.05-48.05-48.05Z"/><path class="n" d="M283.26,306.41c-5.77,0-11.3,1.02-16.43,2.88-.68-.99-1.39-1.95-2.16-2.88-10.65-13.03-28.81-21.1-47.58-21.31v129.5c15.85-.17,32.27-5.63,44.72-14.96,5.85,2.01,12.78,2.89,20.89,2.34,26.48-1.78,48.6-20.98,48.6-47.52s-21.51-48.05-48.05-48.05Z"/><text class="j" transform="translate(346.46 508.53)"><tspan x="0" y="0">DRINK!</tspan></text><text class="i" transform="translate(668.65 576.14)"><tspan x="0" y="0">OR LOSE</tspan></text></g><g id="e"><g id="f"/><g id="g"/></g></svg>